# xmcd
#
# Track frame offsets: 
#        150
#        14893
#        28357
#        41780
#        54442
#        66886
#        80340
#        93873
#        105869
#        119119
#        133695
#        145750
#        157397
#        171102
#        183735
#        201081
#        215796
#        232688
#        246204
#        256911
#        272339
#
# Disc length: 3811 seconds
#
# Revision: 1
# Processed by: cddbd v1.5.2PL0 Copyright (c) Steve Scherf et al.
# Submitted via: ExactAudioCopyFreeDBPlugin 1.0
#
DISCID=360ee115
DTITLE=WILLY SOMMERS - Het Erfgoed Van Willy Sommers - CD 1 - Het Erfg
DTITLE=oed
DYEAR=2016
DGENRE=Chanson
TTITLE0=Het is weer morgen  (1971)
TTITLE1=Zeven anjers zeven rozen  (1971)
TTITLE2=Sympathie is geen liefde  (1971)
TTITLE3=Weet je nog die slow  (1972)
TTITLE4=Een kleine foto  (1972)
TTITLE5=Habanero  (1980)
TTITLE6=Dans met mij tot morgenvroeg  (1974)
TTITLE7=Blijf nog een uurtje bij mij  (1974)
TTITLE8=Holiday  (1976)
TTITLE9=Van 's morgens tot 's avonds  (1973)
TTITLE10=Bruiloftsklokken  (1974)
TTITLE11=Intiem rendez-vous  (1973)
TTITLE12=Souvenir  (1975)
TTITLE13=Een lied voor alle eenzame meisjes  (1975)
TTITLE14=Elke slow zal ik met je dansen  (1977)
TTITLE15=De nacht wordt lang  (1979)
TTITLE16=Breng haar rozen  (1980)
TTITLE17=Naar de zee  (1981)
TTITLE18=Zeg me wanneer  (1976)
TTITLE19=De brief  (1978)
TTITLE20=Siete rosas, siete besos  (1971)
EXTD=
EXTT0=
EXTT1=
EXTT2=
EXTT3=
EXTT4=
EXTT5=
EXTT6=
EXTT7=
EXTT8=
EXTT9=
EXTT10=
EXTT11=
EXTT12=
EXTT13=
EXTT14=
EXTT15=
EXTT16=
EXTT17=
EXTT18=
EXTT19=
EXTT20=
PLAYORDER=
